<?xml version="1.0" encoding="UTF-8" standalone="no"?><svg version="1.1" viewBox="0.0 0.0 500.0 500.0" fill="none" stroke="none" stroke-linecap="square" stroke-miterlimit="10" xmlns:xlink="http://www.w3.org/1999/xlink" xmlns="http://www.w3.org/2000/svg"><clipPath id="p.0"><path d="m0 0l500.0 0l0 500.0l-500.0 0l0 -500.0z" clip-rule="nonzero"/></clipPath><g clip-path="url(#p.0)"><path fill="#000000" fill-opacity="0.0" d="m0 0l500.0 0l0 500.0l-500.0 0z" fill-rule="evenodd"/><path fill="#000000" d="m39.879265 249.70341l0 0c0 -116.14505 94.15417 -210.29922 210.29922 -210.29922l0 0c55.774826 0 109.26524 22.156464 148.704 61.595215c39.43875 39.43876 61.595215 92.92918 61.595215 148.70401l0 0c0 116.145035 -94.154175 210.29921 -210.29921 210.29921l0 0c-116.14505 0 -210.29922 -94.154175 -210.29922 -210.29921z" fill-rule="evenodd"/><path stroke="#ffffff" stroke-width="8.0" stroke-linejoin="round" stroke-linecap="butt" d="m39.879265 249.70341l0 0c0 -116.14505 94.15417 -210.29922 210.29922 -210.29922l0 0c55.774826 0 109.26524 22.156464 148.704 61.595215c39.43875 39.43876 61.595215 92.92918 61.595215 148.70401l0 0c0 116.145035 -94.154175 210.29921 -210.29921 210.29921l0 0c-116.14505 0 -210.29922 -94.154175 -210.29922 -210.29921z" fill-rule="evenodd"/><path fill="#000000" fill-opacity="0.0" d="m82.414696 318.66125l110.614174 0" fill-rule="evenodd"/><path stroke="#ffffff" stroke-width="4.0" stroke-linejoin="round" stroke-linecap="butt" d="m82.414696 318.66125l110.614174 0" fill-rule="evenodd"/><path fill="#000000" fill-opacity="0.0" d="m192.77946 320.74377l0 -142.07874" fill-rule="evenodd"/><path stroke="#ffffff" stroke-width="4.0" stroke-linejoin="round" stroke-linecap="butt" d="m192.77946 320.74377l0 -142.07874" fill-rule="evenodd"/><path fill="#000000" fill-opacity="0.0" d="m191.8169 179.68779l116.724396 0" fill-rule="evenodd"/><path stroke="#ffffff" stroke-width="4.0" stroke-linejoin="round" stroke-linecap="butt" d="m191.8169 179.68779l116.724396 0" fill-rule="evenodd"/><path fill="#000000" fill-opacity="0.0" d="m417.5853 319.2521l-110.61417 0" fill-rule="evenodd"/><path stroke="#ffffff" stroke-width="4.0" stroke-linejoin="round" stroke-linecap="butt" d="m417.5853 319.2521l-110.61417 0" fill-rule="evenodd"/><path fill="#000000" fill-opacity="0.0" d="m307.58148 321.33463l0 -142.07875" fill-rule="evenodd"/><path stroke="#ffffff" stroke-width="4.0" stroke-linejoin="round" stroke-linecap="butt" d="m307.58148 321.33463l0 -142.07875" fill-rule="evenodd"/></g></svg>